<svg id="BMW-logo" xmlns="http://www.w3.org/2000/svg" width="40" height="40" viewBox="0 0 40 40">
  <g id="BMW-logo-white">
    <g id="BMW-Logo-103x115-White-NEW">
      <path id="Shape" d="M20,0A20,20,0,1,0,40,20,20,20,0,0,0,20,0ZM38.7,20A18.7,18.7,0,1,1,20,1.3,18.7,18.7,0,0,1,38.7,20Z" fill="#fff"/>
      <g id="Group" transform="translate(5.582 2.352)">
        <path id="W_60_" d="M31.222,10.141c.272.292.663.762.883,1.048l4.05-2.571c-.2-.265-.524-.667-.766-.95l-2.565,1.7-.175.15.131-.191,1.132-2.26-.8-.8L30.851,7.395l-.191.131.152-.175,1.7-2.564c-.3-.254-.586-.487-.951-.769L28.987,8.064c.326.25.755.619,1.029.869l2.42-1.256.155-.114-.114.155Z" transform="translate(-7.111 -0.978)" fill="#fff"/>
        <path id="M_60_" d="M18.68,4.035l1.106-2.479.071-.22-.02.229.116,3.313c.388.036.789.091,1.184.156L20.958.128Q20.129.036,19.3,0l-1.09,2.706-.039.2-.039-.2L17.048,0q-.826.035-1.653.128l-.18,4.906c.4-.066.8-.119,1.184-.156l.116-3.313-.02-.229.071.22,1.107,2.479Z" transform="translate(-3.759)" fill="#fff"/>
        <path id="B_x5F_22d_60_" d="M6.044,9.216c.64-.674,1-1.452.362-2.2A1.246,1.246,0,0,0,4.99,6.727l-.048.019L4.957,6.7a1.169,1.169,0,0,0-.4-1.225,1.205,1.205,0,0,0-.895-.249C3.058,5.29,2.6,5.7,1.337,7.1.957,7.527.4,8.195.073,8.628l3.456,3.278C4.674,10.638,5.141,10.167,6.044,9.216Zm-4.51-.8a21.471,21.471,0,0,1,1.771-1.93.913.913,0,0,1,.361-.23.428.428,0,0,1,.514.332.762.762,0,0,1-.258.64C3.555,7.64,2.2,9.052,2.2,9.052ZM2.888,9.7S4.2,8.308,4.632,7.863a1.606,1.606,0,0,1,.4-.341.451.451,0,0,1,.466.009.41.41,0,0,1,.176.433,1.282,1.282,0,0,1-.34.533L3.589,10.362Z" transform="translate(-0.073 -1.271)" fill="#fff"/>
      </g>
      <path id="Path" d="M38.3,22.619H26.435V10.759A11.855,11.855,0,0,1,38.3,22.619Z" transform="translate(-6.435 -2.619)" fill="#fff"/>
      <path id="Path-2" data-name="Path" d="M22.619,26.435V38.3a11.855,11.855,0,0,1-11.86-11.86Z" transform="translate(-2.619 -6.435)" fill="#fff"/>
      <path id="Path-3" data-name="Path" d="M22.619,10.759v11.86H10.759A11.855,11.855,0,0,1,22.619,10.759Z" transform="translate(-2.619 -2.619)" fill="#0066b1"/>
      <path id="Path-4" data-name="Path" d="M38.3,26.435A11.855,11.855,0,0,1,26.435,38.3V26.435Z" transform="translate(-6.435 -6.435)" fill="#0066b1"/>
    </g>
  </g>
</svg>
